<?xml version="1.0" encoding="utf-8"?>
<svg width="466" height="120" viewBox="0 0 466 120" fill="none" xmlns="http://www.w3.org/2000/svg">
  <g>
    <path d="M27 44.5078L27 12.5859L9.07031 12.5859L9.07031 40.0078C9.07031 44.5078 7.66406 46.3359 3.02344 46.3359L0.351562 46.3359L5.69531 58.9922L13.2891 58.9922C23.2031 58.9922 27 52.8047 27 44.5078ZM48.8672 58.9922L65.7422 58.9922L65.7422 37.9688C65.7422 28.6172 60.8906 23.8359 50.3438 23.8359L37.125 23.8359L32.1328 37.4062L44.9297 37.4062C47.8828 37.4062 48.8672 38.3203 48.8672 41.1328L48.8672 58.9922ZM40.0781 58.9922L42.3984 58.9922L48.0234 41.6953L39.375 41.6953C32.6953 41.6953 29.8125 45.0703 29.8125 50.2031C29.8125 55.5469 33.6094 58.9922 40.0781 58.9922ZM89.9297 58.9922L96.2578 47.3906L83.7422 23.8359L65.3906 23.8359L65.3906 24.6797L83.8828 58.9922L89.9297 58.9922ZM89.7891 33.1172L104.133 33.1172L108.914 24.4688L108.914 23.8359L93.4453 23.8359L89.7891 33.1172ZM125.297 58.9922L142.172 58.9922L142.172 37.9688C142.172 28.6172 137.32 23.8359 126.773 23.8359L113.555 23.8359L108.562 37.4062L121.359 37.4062C124.312 37.4062 125.297 38.3203 125.297 41.1328L125.297 58.9922ZM116.508 58.9922L118.828 58.9922L124.453 41.6953L115.805 41.6953C109.125 41.6953 106.242 45.0703 106.242 50.2031C106.242 55.5469 110.039 58.9922 116.508 58.9922ZM150.961 58.9922L167.906 58.9922C180 58.9922 184.992 53.4375 184.992 46.1953C184.992 40.2891 181.969 36.2812 175.641 34.2422L166.148 31.1484C164.32 30.5156 163.617 29.8828 163.617 28.6172C163.617 27.2109 164.461 26.6484 166.219 26.6484L184.289 26.6484L178.523 12.5859L163.406 12.5859C152.648 12.5859 145.336 16.1719 145.336 25.875C145.336 32.2031 148.922 36.4219 155.109 38.25L164.461 41.0625C166.078 41.5547 167.062 42.3984 167.062 44.0859C167.062 46.0547 166.078 46.8281 163.758 46.8281L145.828 46.8281L150.961 58.9922ZM205.945 23.8359C196.102 23.8359 187.805 29.7422 187.805 41.5547C187.805 52.8047 194.906 58.9922 206.789 58.9922L217.969 58.9922L222.609 46.8281L211.5 46.8281C207.562 46.8281 205.453 45.7031 205.453 42.1172C205.453 38.6719 207.562 37.1953 211.5 37.1953L223.031 37.1953L217.898 23.8359L205.945 23.8359ZM225.703 58.9922L242.578 58.9922L242.578 23.8359L225.703 23.8359L225.703 58.9922ZM256.852 40.3594L261.984 23.8359L248.555 23.8359L243.422 40.3594L256.852 40.3594ZM272.18 11.8828C266.062 11.8828 263.672 13.3594 263.672 16.8047C263.672 20.1094 266.133 21.5859 272.18 21.5859L273.375 21.5859C279.281 21.5859 281.672 20.1094 281.672 16.8047C281.672 13.4297 279.492 11.8828 273.445 11.8828L272.18 11.8828ZM264.234 58.9922L281.109 58.9922L281.109 23.8359L264.234 23.8359L264.234 58.9922ZM302.203 70.2422L302.203 58.9922L305.438 58.9922C320.133 58.9922 326.742 52.3125 326.742 41.2031C326.742 30.6562 320.414 23.8359 308.742 23.8359L307.828 23.8359L303.188 37.1953L304.312 37.1953C308.391 37.1953 310.359 39.1641 310.359 42.5391C310.359 45.9844 308.391 47.8125 304.805 47.8125L302.203 47.8125L302.203 23.8359L285.328 23.8359L285.328 70.2422L302.203 70.2422ZM359.438 23.8359L350.719 23.8359L350.719 15.2578L343.547 15.2578L328.5 34.2422L328.5 36.4922L359.438 36.4922L359.438 23.8359ZM350.719 37.3359L333.844 43.3125L333.844 44.8594C333.844 56.25 339.258 58.9922 348.539 58.9922L353.461 58.9922L359.719 45.6328L357.328 45.6328C352.477 45.6328 350.719 45.1406 350.719 40.2188L350.719 37.3359Z" transform="translate(0 -13.172)" fill="#4A4944" />
    <path d="M6.25781 26.2266L6.25781 29.3906L0 39.375L0 41.4844L30.9375 41.4844L30.9375 29.8828L23.1328 29.8828L23.1328 28.5469C23.1328 25.5938 24.0469 23.8359 27.3516 23.8359L31.4297 23.8359L27.0703 12.5859L20.7422 12.5859C11.7422 12.5859 6.25781 16.5938 6.25781 26.2266ZM6.25781 48.3047L6.25781 58.9922L23.1328 58.9922L23.1328 42.3281L6.25781 48.3047ZM56.3906 36.1406C59.2031 36.2812 60.8203 38.3906 60.8203 41.9766L60.8203 42.5391C60.8203 45.7734 59.0625 48.0938 55.8281 48.0938C52.4531 48.0938 50.8359 45.7734 50.8359 42.5391L50.8359 41.9766C50.8359 38.1797 52.5938 36.1406 55.5469 36.1406L55.5469 23.1328L53.7188 23.1328C41.5547 23.1328 33.8906 30.1641 33.8906 41.5547C33.8906 52.1016 41.8359 59.6953 55.1953 59.6953L56.4609 59.6953C69.8906 59.6953 77.6953 52.1016 77.7656 41.5547C77.8359 30.5859 71.2969 24.5391 60.9609 23.4844L56.3906 36.1406ZM80.9297 58.9922L97.8047 58.9922L97.8047 23.8359L80.9297 23.8359L80.9297 58.9922ZM112.078 40.3594L117.211 23.8359L103.781 23.8359L98.6484 40.3594L112.078 40.3594ZM133.875 58.9922L168.469 58.9922L172.195 46.8281L151.805 46.8281L151.805 41.1328L169.312 41.1328L169.312 31.1484L151.805 31.1484L151.805 12.5859L133.875 12.5859L133.875 58.9922ZM156.727 12.5859L152.648 26.1562L171.211 26.1562L171.211 12.5859L156.727 12.5859ZM198.492 58.9922L204.82 47.3906L192.305 23.8359L173.953 23.8359L173.953 24.6797L192.445 58.9922L198.492 58.9922ZM198.352 33.1172L212.695 33.1172L217.477 24.4688L217.477 23.8359L202.008 23.8359L198.352 33.1172ZM214.453 41.2734C214.453 52.1016 222.328 58.9922 236.25 58.9922L248.625 58.9922L252.422 46.8281L237.656 46.8281C234.281 46.8281 233.016 44.7188 233.016 41.4141L233.016 23.1328C221.625 23.1328 214.453 30.0234 214.453 41.2734ZM233.859 41.9766L252.984 41.9766C253.969 30.8672 247.5 24.8906 239.484 23.5547L233.859 41.9766ZM256.219 58.9922L273.094 58.9922L273.094 23.8359L256.219 23.8359L256.219 58.9922ZM287.367 40.3594L292.5 23.8359L279.07 23.8359L273.938 40.3594L287.367 40.3594ZM294.328 23.8359L306.703 54.2109L299.812 70.2422L316.898 70.2422L323.93 53.2266L311.906 23.8359L294.328 23.8359ZM332.719 35.5781L337.781 23.8359L322.875 23.8359L317.812 35.5781L332.719 35.5781ZM358.523 36.1406C361.336 36.2812 362.953 38.3906 362.953 41.9766L362.953 42.5391C362.953 45.7734 361.195 48.0938 357.961 48.0938C354.586 48.0938 352.969 45.7734 352.969 42.5391L352.969 41.9766C352.969 38.1797 354.727 36.1406 357.68 36.1406L357.68 23.1328L355.852 23.1328C343.688 23.1328 336.023 30.1641 336.023 41.5547C336.023 52.1016 343.969 59.6953 357.328 59.6953L358.594 59.6953C372.023 59.6953 379.828 52.1016 379.898 41.5547C379.969 30.5859 373.43 24.5391 363.094 23.4844L358.523 36.1406ZM383.062 58.9922L399.938 58.9922L399.938 23.8359L383.062 23.8359L383.062 58.9922ZM405.703 58.9922L422.578 58.9922L422.578 37.0547C422.578 28.3359 417.867 23.8359 407.25 23.8359L405.703 23.8359L400.781 39.6562L401.062 39.6562C404.227 39.6562 405.703 40.8516 405.703 44.2969L405.703 58.9922ZM425.742 41.2734C425.742 52.1016 433.617 58.9922 447.539 58.9922L459.914 58.9922L463.711 46.8281L448.945 46.8281C445.57 46.8281 444.305 44.7188 444.305 41.4141L444.305 23.1328C432.914 23.1328 425.742 30.0234 425.742 41.2734ZM445.148 41.9766L464.273 41.9766C465.258 30.8672 458.789 24.8906 450.773 23.5547L445.148 41.9766Z" transform="translate(0 46.828)" fill="#4A4944" />
  </g>
</svg>